<svg width="20" height="8" viewBox="0 0 20 8" fill="none" xmlns="http://www.w3.org/2000/svg">
<path d="M3.06623 7.65501C4.8668 7.65501 5.93635 6.24693 5.93635 3.86253C5.93635 2.9647 5.76463 2.20915 5.43592 1.62531C4.96002 0.717669 4.14069 0.227051 3.10548 0.227051C1.56494 0.227051 0.475769 1.26225 0.475769 2.71448C0.475769 4.0784 1.45701 5.06945 2.8062 5.06945C3.63535 5.06945 4.3075 4.68186 4.64112 4.00972H4.65583C4.65583 4.00972 4.67546 4.00972 4.68037 4.00972C4.69018 4.00972 4.72452 4.00972 4.72452 4.00972C4.72452 5.62876 4.11125 6.59527 3.07604 6.59527C2.46768 6.59527 1.99669 6.26165 1.83478 5.72688H0.573893C0.784858 6.88964 1.771 7.65501 3.06623 7.65501ZM3.11039 4.06368C2.29596 4.06368 1.71703 3.48475 1.71703 2.67523C1.71703 1.88534 2.3254 1.28188 3.11529 1.28188C3.90519 1.28188 4.51356 1.89515 4.51356 2.69486C4.51356 3.48475 3.91991 4.06368 3.11039 4.06368Z" fill="black"/>
<path d="M8.00695 7.58632C8.47304 7.58632 8.79194 7.2527 8.79194 6.81115C8.79194 6.36468 8.47304 6.03597 8.00695 6.03597C7.54577 6.03597 7.22196 6.36468 7.22196 6.81115C7.22196 7.2527 7.54577 7.58632 8.00695 7.58632ZM8.00695 3.90669C8.47304 3.90669 8.79194 3.57797 8.79194 3.13642C8.79194 2.68995 8.47304 2.36124 8.00695 2.36124C7.54577 2.36124 7.22196 2.68995 7.22196 3.13642C7.22196 3.57797 7.54577 3.90669 8.00695 3.90669Z" fill="black"/>
<path d="M13.3843 7.48329H14.5961V6.16353H15.5529V5.09398H14.5961V0.403673H12.8103C11.5592 2.28765 10.5633 3.86253 9.92547 5.03511V6.16353H13.3843V7.48329ZM11.098 5.04983C11.9223 3.5976 12.6582 2.43483 13.3353 1.43397H13.4039V5.12342H11.098V5.04983Z" fill="black"/>
<path d="M18.2514 7.48329H19.5172V0.403673H18.2564L16.4067 1.6989V2.91564L18.168 1.67928H18.2514V7.48329Z" fill="black"/>
</svg>
