<svg width="23" height="10" viewBox="0 0 23 10" fill="none" xmlns="http://www.w3.org/2000/svg">
<path d="M3.64257 9.05232C5.70036 9.05232 6.9227 7.4431 6.9227 4.71806C6.9227 3.69197 6.72645 2.82848 6.35078 2.16124C5.80689 1.12394 4.87052 0.563232 3.68743 0.563232C1.92681 0.563232 0.682041 1.74632 0.682041 3.40601C0.682041 4.96477 1.80345 6.0974 3.34539 6.0974C4.29299 6.0974 5.06116 5.65444 5.44244 4.88628H5.45926C5.45926 4.88628 5.48169 4.88628 5.48729 4.88628C5.49851 4.88628 5.53776 4.88628 5.53776 4.88628C5.53776 6.73661 4.83687 7.8412 3.65378 7.8412C2.95851 7.8412 2.42023 7.45992 2.2352 6.84875H0.794182C1.03529 8.17762 2.16231 9.05232 3.64257 9.05232ZM3.69303 4.94795C2.76226 4.94795 2.10063 4.28632 2.10063 3.36116C2.10063 2.45842 2.7959 1.76875 3.69864 1.76875C4.60138 1.76875 5.29665 2.46963 5.29665 3.38358C5.29665 4.28632 4.6182 4.94795 3.69303 4.94795Z" fill="black"/>
<path d="M9.2891 8.97382C9.82177 8.97382 10.1862 8.59254 10.1862 8.08791C10.1862 7.57767 9.82177 7.20199 9.2891 7.20199C8.76204 7.20199 8.39197 7.57767 8.39197 8.08791C8.39197 8.59254 8.76204 8.97382 9.2891 8.97382ZM9.2891 4.76853C9.82177 4.76853 10.1862 4.39285 10.1862 3.88822C10.1862 3.37798 9.82177 3.0023 9.2891 3.0023C8.76204 3.0023 8.39197 3.37798 8.39197 3.88822C8.39197 4.39285 8.76204 4.76853 9.2891 4.76853Z" fill="black"/>
<path d="M15.4347 8.85608H16.8196V7.34778H17.913V6.12544H16.8196V0.765087H14.7786C13.3488 2.9182 12.2106 4.71806 11.4817 6.05815V7.34778H15.4347V8.85608ZM12.8218 6.07497C13.7638 4.41528 14.6048 3.08641 15.3786 1.94257H15.4571V6.15908H12.8218V6.07497Z" fill="black"/>
<path d="M20.9971 8.85608H22.4437V0.765087H21.0027L18.8888 2.24535V3.6359L20.9018 2.22292H20.9971V8.85608Z" fill="black"/>
</svg>
