<svg width="320" height="652" viewBox="0 0 320 652" fill="none" xmlns="http://www.w3.org/2000/svg">
<path d="M317.247 167.726H318.38C319.006 167.726 319.513 168.235 319.513 168.864V243.188C319.513 243.816 319.006 244.326 318.38 244.326H317.247V167.726Z" fill="#303030"/>
<path d="M2.2602 260.252L1.12715 260.252C0.501385 260.252 -0.00589613 259.743 -0.00589608 259.115L-0.00589218 214.368C-0.00589213 213.74 0.501389 213.231 1.12715 213.231L2.2602 213.231L2.2602 260.252Z" fill="#303030"/>
<path d="M2.2602 198.062L1.12715 198.062C0.501385 198.062 -0.00589613 197.553 -0.00589608 196.925L-0.00589218 152.179C-0.00589213 151.55 0.501389 151.041 1.12715 151.041L2.2602 151.041L2.2602 198.062Z" fill="#333333"/>
<path d="M2.2602 128.289L1.12715 128.289C0.501389 128.289 -0.0058929 127.779 -0.00589285 127.151L-0.00589093 105.157C-0.00589088 104.529 0.50139 104.019 1.12715 104.019L2.2602 104.019L2.2602 128.289Z" fill="#333333"/>
<path fill-rule="evenodd" clip-rule="evenodd" d="M4.66325 34.9385C2.2602 42.3642 2.2602 51.5397 2.2602 69.8908V582.578C2.2602 600.929 2.2602 610.104 4.66325 617.53C9.51998 632.538 21.239 644.304 36.1865 649.181C43.5823 651.593 52.721 651.593 70.9982 651.593H248.509C266.786 651.593 275.924 651.593 283.32 649.181C298.268 644.304 309.987 632.538 314.844 617.53C317.247 610.104 317.247 600.929 317.247 582.578V69.8908C317.247 51.5397 317.247 42.3642 314.844 34.9385C309.987 19.9307 298.268 8.16434 283.32 3.288C275.924 0.875244 266.786 0.875244 248.509 0.875244H70.9982C52.721 0.875244 43.5823 0.875244 36.1865 3.288C21.239 8.16434 9.51998 19.9307 4.66325 34.9385ZM82.3293 19.4564V22.8692L82.3832 22.8675L82.329 23.2484C82.329 32.2539 89.6001 39.5543 98.5694 39.5543H220.938C229.907 39.5543 237.178 32.2539 237.178 23.2484L237.124 22.8675L237.178 22.8692V19.4564C237.178 17.1526 239.038 15.2851 241.333 15.2851L251.062 15.2851C266.272 15.2851 273.877 15.2851 279.942 17.5862C289.475 21.2031 297.001 28.7589 300.603 38.3307C302.895 44.4205 302.895 52.0561 302.895 67.3274V585.141C302.895 600.412 302.895 608.048 300.603 614.138C297.001 623.71 289.475 631.266 279.942 634.882C273.877 637.183 266.272 637.183 251.062 637.183H68.4455C53.2356 637.183 45.6307 637.183 39.5654 634.882C30.0321 631.266 22.5067 623.71 18.9043 614.138C16.6125 608.048 16.6125 600.412 16.6125 585.141V67.3273C16.6125 52.0561 16.6125 44.4205 18.9043 38.3307C22.5067 28.7589 30.0321 21.2031 39.5654 17.5862C45.6307 15.2851 53.2356 15.2851 68.4455 15.2851L78.1748 15.2851C80.4693 15.2851 82.3293 17.1526 82.3293 19.4564Z" fill="#333333"/>
<path fill-rule="evenodd" clip-rule="evenodd" d="M248.811 2.3922H70.6965C52.6416 2.3922 43.7934 2.40156 36.6538 4.73072C22.1662 9.45702 10.8077 20.8613 6.10045 35.4074C3.78065 42.5758 3.77133 51.4598 3.77133 69.5875V582.881C3.77133 601.009 3.78065 609.893 6.10045 617.062C10.8077 631.608 22.1662 643.012 36.6538 647.738C43.7934 650.067 52.6417 650.077 70.6965 650.077H248.811C266.866 650.077 275.714 650.067 282.854 647.738C297.342 643.012 308.7 631.608 313.407 617.062C315.727 609.893 315.736 601.009 315.736 582.881V69.5876C315.736 51.4598 315.727 42.5758 313.407 35.4074C308.7 20.8613 297.342 9.45702 282.854 4.73072C275.714 2.40156 266.866 2.3922 248.811 2.3922ZM5.38206 35.173C3.01597 42.4845 3.01597 51.5188 3.01597 69.5875V582.881C3.01597 600.95 3.01597 609.984 5.38206 617.296C10.1641 632.073 21.7028 643.658 36.4203 648.459C43.7024 650.835 52.7004 650.835 70.6965 650.835H248.811C266.807 650.835 275.805 650.835 283.087 648.459C297.805 643.658 309.344 632.073 314.126 617.296C316.492 609.984 316.492 600.95 316.492 582.881V69.5876C316.492 51.5188 316.492 42.4845 314.126 35.173C309.344 20.3961 297.805 8.81075 283.087 4.00943C275.805 1.63379 266.807 1.63379 248.811 1.63379H70.6965C52.7004 1.63379 43.7024 1.63379 36.4203 4.00943C21.7028 8.81075 10.1641 20.3961 5.38206 35.173Z" fill="#303030"/>
<path fill-rule="evenodd" clip-rule="evenodd" d="M8.25726 36.1104C6.03905 42.9649 6.03905 51.4346 6.03905 68.374V584.095C6.03905 601.034 6.03905 609.504 8.25726 616.358C12.7404 630.212 23.558 641.073 37.3556 645.574C44.1826 647.801 52.6182 647.801 69.4896 647.801H250.021C266.893 647.801 275.328 647.801 282.155 645.574C295.953 641.073 306.771 630.212 311.254 616.358C313.472 609.504 313.472 601.034 313.472 584.095V68.374C313.472 51.4346 313.472 42.9649 311.254 36.1104C306.771 22.257 295.953 11.3958 282.155 6.89452C275.328 4.66736 266.893 4.66736 250.021 4.66736H69.4896C52.6182 4.66736 44.1826 4.66736 37.3556 6.89452C23.558 11.3958 12.7404 22.257 8.25726 36.1104ZM82.3305 19.4564V22.8693L82.3844 22.8676L82.3302 23.2485C82.3302 32.2539 89.6013 39.5543 98.5705 39.5543H220.939C229.909 39.5543 237.18 32.2539 237.18 23.2485L237.125 22.8676L237.179 22.8693V19.4564C237.179 17.1527 239.039 15.2851 241.334 15.2851L251.063 15.2851C266.273 15.2851 273.878 15.2851 279.943 17.5862C289.477 21.2031 297.002 28.759 300.604 38.3308C302.896 44.4205 302.896 52.0561 302.896 67.3274V585.141C302.896 600.413 302.896 608.048 300.604 614.138C297.002 623.71 289.477 631.266 279.943 634.882C273.878 637.184 266.273 637.184 251.063 637.184H68.4466C53.2368 637.184 45.6319 637.184 39.5666 634.882C30.0333 631.266 22.5078 623.71 18.9055 614.138C16.6136 608.048 16.6136 600.413 16.6136 585.141V67.3274C16.6136 52.0561 16.6136 44.4205 18.9055 38.3308C22.5078 28.759 30.0333 21.2031 39.5666 17.5862C45.6319 15.2851 53.2368 15.2851 68.4466 15.2851L78.176 15.2851C80.4704 15.2851 82.3305 17.1527 82.3305 19.4564Z" fill="#121515"/>
<rect x="250.02" y="0.875244" width="4.53216" height="3.79206" fill="#414141"/>
<rect x="313.471" y="66.0988" width="3.77687" height="4.55047" fill="#414141"/>
<rect x="2.26125" y="66.0988" width="3.77682" height="4.55047" fill="#414141"/>
<rect x="2.26125" y="581.819" width="3.77682" height="4.55046" fill="#414141"/>
<rect x="313.471" y="581.819" width="3.77687" height="4.55046" fill="#414141"/>
<rect x="64.956" y="647.801" width="4.53218" height="3.79206" fill="#414141"/>
<path fill-rule="evenodd" clip-rule="evenodd" d="M191.857 31.2118C195.195 31.2118 197.9 28.4953 197.9 25.1445C197.9 21.7936 195.195 19.0771 191.857 19.0771C188.52 19.0771 185.814 21.7936 185.814 25.1445C185.814 28.4953 188.52 31.2118 191.857 31.2118Z" fill="#262C2D"/>
<path fill-rule="evenodd" clip-rule="evenodd" d="M191.856 28.9365C193.942 28.9365 195.633 27.2388 195.633 25.1445C195.633 23.0502 193.942 21.3524 191.856 21.3524C189.771 21.3524 188.08 23.0502 188.08 25.1445C188.08 27.2388 189.771 28.9365 191.856 28.9365Z" fill="#121515"/>
<path opacity="0.4" fill-rule="evenodd" clip-rule="evenodd" d="M191.858 24.3868C192.275 24.3868 192.613 24.0471 192.613 23.628C192.613 23.209 192.275 22.8693 191.858 22.8693C191.44 22.8693 191.102 23.209 191.102 23.628C191.102 24.0471 191.44 24.3868 191.858 24.3868Z" fill="#636F73"/>
<path fill-rule="evenodd" clip-rule="evenodd" d="M141.248 25.1445C141.248 23.8879 142.267 22.8693 143.524 22.8693H175.986C177.242 22.8693 178.261 23.8879 178.261 25.1445V25.1445C178.261 26.4011 177.242 27.4197 175.986 27.4197H143.524C142.267 27.4197 141.248 26.4011 141.248 25.1445V25.1445Z" fill="#262C2D"/>
</svg>
