<svg width="280" height="570" viewBox="0 0 280 570" fill="none" xmlns="http://www.w3.org/2000/svg">
<path d="M277.595 145.995H278.587C279.134 145.995 279.578 146.44 279.578 146.99V212.024C279.578 212.574 279.134 213.019 278.587 213.019H277.595V145.995Z" fill="#303030"/>
<path d="M1.98164 226.955L0.990225 226.955C0.442682 226.955 -0.00118938 226.51 -0.00118933 225.96L-0.00118592 186.807C-0.00118588 186.257 0.442686 185.811 0.990229 185.811L1.98165 185.811L1.98164 226.955Z" fill="#303030"/>
<path d="M1.98164 172.539L0.990225 172.539C0.442682 172.539 -0.00118938 172.093 -0.00118933 171.544L-0.00118592 132.39C-0.00118588 131.841 0.442686 131.395 0.990229 131.395L1.98165 131.395L1.98164 172.539Z" fill="#333333"/>
<path d="M1.98164 111.487L0.990228 111.487C0.442685 111.487 -0.00118678 111.041 -0.00118673 110.491L-0.00118505 91.2466C-0.001185 90.6969 0.442686 90.2512 0.990229 90.2512L1.98165 90.2512L1.98164 111.487Z" fill="#333333"/>
<path fill-rule="evenodd" clip-rule="evenodd" d="M4.08432 29.8054C1.98164 36.3029 1.98164 44.3315 1.98164 60.3886V508.99C1.98164 525.047 1.98164 533.076 4.08432 539.573C8.33396 552.705 18.5881 563.001 31.6672 567.267C38.1385 569.379 46.1348 569.379 62.1275 569.379H217.449C233.442 569.379 241.438 569.379 247.909 567.267C260.988 563.001 271.243 552.705 275.492 539.573C277.595 533.076 277.595 525.047 277.595 508.99V60.3886C277.595 44.3315 277.595 36.3029 275.492 29.8054C271.243 16.6735 260.988 6.37796 247.909 2.11116C241.438 0 233.442 0 217.449 0H62.1275C46.1348 0 38.1385 0 31.6672 2.11116C18.5881 6.37796 8.33396 16.6735 4.08432 29.8054ZM72.0421 16.2585V19.2447L72.0893 19.2433L72.0419 19.5765C72.0419 27.4563 78.4041 33.8442 86.2522 33.8442H193.325C201.173 33.8442 207.535 27.4563 207.535 19.5765L207.488 19.2433L207.535 19.2447V16.2585C207.535 14.2427 209.163 12.6086 211.17 12.6086L219.683 12.6086C232.992 12.6086 239.646 12.6086 244.953 14.6221C253.295 17.7869 259.88 24.3982 263.032 32.7736C265.037 38.1021 265.037 44.7833 265.037 58.1456V511.233C265.037 524.595 265.037 531.277 263.032 536.605C259.88 544.98 253.295 551.592 244.953 554.757C239.646 556.77 232.992 556.77 219.683 556.77H59.8938C46.5852 556.77 39.9308 556.77 34.6237 554.757C26.2821 551.592 19.6973 544.98 16.5453 536.605C14.5399 531.277 14.5399 524.595 14.5399 511.233V58.1456C14.5399 44.7833 14.5399 38.1021 16.5453 32.7736C19.6973 24.3982 26.2821 17.7869 34.6237 14.6221C39.9308 12.6086 46.5852 12.6086 59.8938 12.6086L68.407 12.6086C70.4146 12.6086 72.0421 14.2427 72.0421 16.2585Z" fill="#333333"/>
<path fill-rule="evenodd" clip-rule="evenodd" d="M217.714 1.32731H61.8635C46.0654 1.32731 38.3232 1.33549 32.076 3.37351C19.3994 7.50902 9.46075 17.4878 5.34187 30.2156C3.31204 36.488 3.30389 44.2615 3.30389 60.1233V509.255C3.30389 525.117 3.31204 532.891 5.34187 539.163C9.46075 551.891 19.3994 561.87 32.076 566.005C38.3232 568.043 46.0654 568.051 61.8635 568.051H217.714C233.512 568.051 241.254 568.043 247.501 566.005C260.178 561.87 270.117 551.891 274.235 539.163C276.265 532.891 276.273 525.117 276.273 509.255V60.1233C276.273 44.2615 276.265 36.488 274.235 30.2156C270.117 17.4878 260.178 7.50902 247.501 3.37351C241.254 1.33549 233.512 1.32731 217.714 1.32731ZM4.71327 30.0105C2.64294 36.4081 2.64294 44.3131 2.64294 60.1233V509.255C2.64294 525.066 2.64294 532.971 4.71327 539.368C8.89753 552.298 18.9939 562.435 31.8718 566.636C38.2436 568.715 46.1169 568.715 61.8635 568.715H217.714C233.46 568.715 241.334 568.715 247.706 566.636C260.583 562.435 270.68 552.298 274.864 539.368C276.934 532.971 276.934 525.066 276.934 509.255V60.1233C276.934 44.3131 276.934 36.4081 274.864 30.0105C270.68 17.0807 260.583 6.94354 247.706 2.74238C241.334 0.663696 233.46 0.663696 217.714 0.663696H61.8635C46.1169 0.663696 38.2436 0.663696 31.8718 2.74238C18.9939 6.94354 8.89753 17.0807 4.71327 30.0105Z" fill="#303030"/>
<path fill-rule="evenodd" clip-rule="evenodd" d="M7.22906 30.8307C5.28813 36.8284 5.28813 44.2394 5.28813 59.0614V510.317C5.28813 525.139 5.28813 532.55 7.22906 538.548C11.1518 550.67 20.6172 560.173 32.6902 564.112C38.6637 566.061 46.0449 566.061 60.8074 566.061H218.773C233.535 566.061 240.916 566.061 246.89 564.112C258.963 560.173 268.428 550.67 272.351 538.548C274.292 532.55 274.292 525.139 274.292 510.317V59.0614C274.292 44.2394 274.292 36.8284 272.351 30.8307C268.428 18.709 258.963 9.2054 246.89 5.26682C240.916 3.31805 233.535 3.31805 218.773 3.31805H60.8073C46.0449 3.31805 38.6637 3.31805 32.6902 5.26682C20.6172 9.2054 11.1518 18.709 7.22906 30.8307ZM72.0432 16.2585V19.2447L72.0904 19.2432L72.0429 19.5765C72.0429 27.4563 78.4051 33.8442 86.2532 33.8442H193.326C201.174 33.8442 207.536 27.4563 207.536 19.5765L207.489 19.2432L207.536 19.2447V16.2585C207.536 14.2427 209.164 12.6086 211.171 12.6086L219.684 12.6086C232.993 12.6086 239.647 12.6086 244.954 14.6221C253.296 17.7868 259.881 24.3982 263.033 32.7735C265.038 38.1021 265.038 44.7833 265.038 58.1456V511.233C265.038 524.595 265.038 531.277 263.033 536.605C259.881 544.98 253.296 551.592 244.954 554.757C239.647 556.77 232.993 556.77 219.684 556.77H59.8948C46.5862 556.77 39.9319 556.77 34.6248 554.757C26.2831 551.592 19.6983 544.98 16.5463 536.605C14.5409 531.277 14.5409 524.595 14.5409 511.233V58.1456C14.5409 44.7833 14.5409 38.1021 16.5463 32.7735C19.6983 24.3982 26.2831 17.7868 34.6248 14.6221C39.9319 12.6086 46.5862 12.6086 59.8948 12.6086L68.408 12.6086C70.4156 12.6086 72.0432 14.2427 72.0432 16.2585Z" fill="#121515"/>
<rect x="218.772" width="3.96565" height="3.31806" fill="#414141"/>
<rect x="274.291" y="57.0706" width="3.30476" height="3.98167" fill="#414141"/>
<rect x="1.98257" y="57.0706" width="3.30472" height="3.98167" fill="#414141"/>
<rect x="1.98257" y="508.326" width="3.30472" height="3.98165" fill="#414141"/>
<rect x="274.291" y="508.326" width="3.30476" height="3.98165" fill="#414141"/>
<rect x="56.8405" y="566.061" width="3.96566" height="3.31805" fill="#414141"/>
<path fill-rule="evenodd" clip-rule="evenodd" d="M167.879 26.5445C170.799 26.5445 173.167 24.1676 173.167 21.2356C173.167 18.3036 170.799 15.9267 167.879 15.9267C164.959 15.9267 162.592 18.3036 162.592 21.2356C162.592 24.1676 164.959 26.5445 167.879 26.5445Z" fill="#262C2D"/>
<path fill-rule="evenodd" clip-rule="evenodd" d="M167.878 24.5537C169.704 24.5537 171.183 23.0681 171.183 21.2356C171.183 19.4031 169.704 17.9175 167.878 17.9175C166.053 17.9175 164.574 19.4031 164.574 21.2356C164.574 23.0681 166.053 24.5537 167.878 24.5537Z" fill="#121515"/>
<path opacity="0.4" fill-rule="evenodd" clip-rule="evenodd" d="M167.88 20.5726C168.245 20.5726 168.541 20.2753 168.541 19.9087C168.541 19.542 168.245 19.2448 167.88 19.2448C167.514 19.2448 167.218 19.542 167.218 19.9087C167.218 20.2753 167.514 20.5726 167.88 20.5726Z" fill="#636F73"/>
<path fill-rule="evenodd" clip-rule="evenodd" d="M123.596 21.2356C123.596 20.1361 124.488 19.2448 125.587 19.2448H153.992C155.091 19.2448 155.983 20.1361 155.983 21.2356V21.2356C155.983 22.3351 155.091 23.2264 153.992 23.2264H125.587C124.488 23.2264 123.596 22.3351 123.596 21.2356V21.2356Z" fill="#262C2D"/>
</svg>
