<svg width="17" height="17" viewBox="0 0 17 17" fill="none" xmlns="http://www.w3.org/2000/svg">
<path d="M2.84747 6.81798H4.18746V2.79803H5.52744L7.81881 6.81798H10.8874V2.79803H12.2274V6.81798H13.5673V8.15796H12.2274V9.49794H13.5673V10.8379H12.2274V14.8579H10.8874L8.5893 10.8379H5.52744V14.8579H4.18746V10.8379H2.84747V9.49794H4.18746V8.15796H2.84747V6.81798ZM5.52744 6.81798H6.28453L5.52744 5.49809V6.81798ZM5.52744 8.15796V9.49794H7.81881L7.05502 8.15796H5.52744ZM10.8874 12.1779V10.8379H10.1169L10.8874 12.1779ZM8.5826 8.15796L9.35309 9.49794H10.8874V8.15796H8.5826Z" fill="#00112D"/>
</svg>
