<svg width="17" height="16" viewBox="0 0 17 16" fill="none" xmlns="http://www.w3.org/2000/svg">
<path d="M3.57312 6.05412H4.87042V2.16223H6.16772L8.3861 6.05412H11.3569V2.16223H12.6542V6.05412H13.9515V7.35142H12.6542V8.64872H13.9515V9.94602H12.6542V13.8379H11.3569L9.13205 9.94602H6.16772V13.8379H4.87042V9.94602H3.57312V8.64872H4.87042V7.35142H3.57312V6.05412ZM6.16772 6.05412H6.90069L6.16772 4.77629V6.05412ZM6.16772 7.35142V8.64872H8.3861L7.64664 7.35142H6.16772ZM11.3569 11.2433V9.94602H10.611L11.3569 11.2433ZM9.12556 7.35142L9.87151 8.64872H11.3569V7.35142H9.12556Z" fill="#00112D"/>
</svg>
