<svg width="48" height="48" viewBox="0 0 48 48" fill="none" xmlns="http://www.w3.org/2000/svg">
<path d="M39 7.5H9C8.20435 7.5 7.44129 7.81607 6.87868 8.37868C6.31607 8.94129 6 9.70435 6 10.5V21.5194C6 38.3212 20.2162 43.8956 23.0625 44.8425C23.6704 45.0492 24.3296 45.0492 24.9375 44.8425C27.7875 43.8956 42 38.3212 42 21.5194V10.5C42 9.70435 41.6839 8.94129 41.1213 8.37868C40.5587 7.81607 39.7956 7.5 39 7.5ZM32.5613 20.5612L22.0613 31.0612C21.9219 31.2007 21.7565 31.3114 21.5744 31.3868C21.3923 31.4623 21.1971 31.5012 21 31.5012C20.8029 31.5012 20.6077 31.4623 20.4256 31.3868C20.2435 31.3114 20.0781 31.2007 19.9387 31.0612L15.4387 26.5612C15.1573 26.2798 14.9992 25.898 14.9992 25.5C14.9992 25.102 15.1573 24.7202 15.4387 24.4387C15.7202 24.1573 16.102 23.9992 16.5 23.9992C16.898 23.9992 17.2798 24.1573 17.5613 24.4387L21 27.8775L30.4387 18.4387C30.5781 18.2994 30.7436 18.1888 30.9257 18.1134C31.1077 18.038 31.3029 17.9992 31.5 17.9992C31.6971 17.9992 31.8923 18.038 32.0743 18.1134C32.2564 18.1888 32.4219 18.2994 32.5613 18.4387C32.7006 18.5781 32.8112 18.7436 32.8866 18.9257C32.962 19.1077 33.0008 19.3029 33.0008 19.5C33.0008 19.6971 32.962 19.8923 32.8866 20.0743C32.8112 20.2564 32.7006 20.4219 32.5613 20.5612Z" fill="#2D38A8"/>
</svg>
